<?xml version="1.0" encoding="UTF-8" standalone="no"?>
<svg
   id="logo-13"
   width="49"
   height="48"
   viewBox="0 0 49 48"
   fill="none"
   version="1.1"
   sodipodi:docname="logoipsum-223.svg"
   inkscape:version="1.2.2 (b0a8486541, 2022-12-01)"
   xmlns:inkscape="http://www.inkscape.org/namespaces/inkscape"
   xmlns:sodipodi="http://sodipodi.sourceforge.net/DTD/sodipodi-0.dtd"
   xmlns="http://www.w3.org/2000/svg"
   xmlns:svg="http://www.w3.org/2000/svg">
  <defs
     id="defs13" />
  <sodipodi:namedview
     id="namedview11"
     pagecolor="#ffffff"
     bordercolor="#000000"
     borderopacity="0.25"
     inkscape:showpageshadow="2"
     inkscape:pageopacity="0.0"
     inkscape:pagecheckerboard="0"
     inkscape:deskcolor="#d1d1d1"
     showgrid="false"
     inkscape:zoom="12.786848"
     inkscape:cx="11.613496"
     inkscape:cy="25.064817"
     inkscape:window-width="1920"
     inkscape:window-height="1043"
     inkscape:window-x="0"
     inkscape:window-y="0"
     inkscape:window-maximized="1"
     inkscape:current-layer="logo-13" />
  <path
     d="M1.98441 29.2899C1.98441 27.0299 2.42954 24.7919 3.29444 22.704C4.15935 20.6159 5.42701 18.7187 7.02513 17.1206C8.62324 15.5225 10.5204 14.2548 12.6084 13.3899C14.6965 12.5251 16.9344 12.0799 19.1945 12.0799V29.2899H1.98441Z"
     class="ccustom"
     fill="#442781"
     id="path2"
     style="fill:#38bdf8;fill-opacity:1" />
  <path
     d="M1.98441 29.2899C1.98441 31.55 2.42954 33.7879 3.29444 35.876C4.15935 37.964 5.42701 39.8612 7.02513 41.4593C8.62324 43.0574 10.5204 44.3251 12.6084 45.19C14.6965 46.0549 16.9344 46.5 19.1945 46.5V29.2899H1.98441Z"
     class="ccompli1"
     fill="#61459C"
     id="path4"
     style="fill:#1e293b;fill-opacity:1" />
  <path
     d="M36.4043 29.2899C36.4043 31.55 35.9595 33.7879 35.0947 35.876C34.2298 37.964 32.9622 39.8612 31.3638 41.4593C29.7657 43.0574 27.8685 44.3251 25.7804 45.19C23.6925 46.0549 21.4545 46.5 19.1945 46.5V29.2899H36.4043Z"
     class="ccompli2"
     fill="#A992DB"
     id="path6"
     style="fill:#34d399;fill-opacity:1" />
  <path
     d="M47.0156 14.422C47.0156 21.5586 41.23 27.344 34.0935 27.344H21.1716V14.422C21.1716 7.2854 26.957 1.5 34.0935 1.5C41.23 1.5 47.0156 7.2854 47.0156 14.422Z"
     class="ccustom"
     fill="#FF7917"
     id="path8"
     style="fill:#4f46e5;fill-opacity:1" />
</svg>
